<?xml version="1.0" encoding="UTF-8" standalone="no"?>
<svg
   xmlns:dc="http://purl.org/dc/elements/1.1/"
   xmlns:cc="http://creativecommons.org/ns#"
   xmlns:rdf="http://www.w3.org/1999/02/22-rdf-syntax-ns#"
   xmlns:svg="http://www.w3.org/2000/svg"
   xmlns="http://www.w3.org/2000/svg"
   xmlns:sodipodi="http://sodipodi.sourceforge.net/DTD/sodipodi-0.dtd"
   xmlns:inkscape="http://www.inkscape.org/namespaces/inkscape"
   inkscape:version="1.0 (4035a4fb49, 2020-05-01)"
   height="200"
   width="550"
   sodipodi:docname="logo.svg"
   xml:space="preserve"
   viewBox="0 0 550 200"
   y="0px"
   x="0px"
   id="Layer_1"
   version="1.1"><metadata
   id="metadata17"><rdf:RDF><cc:Work
       rdf:about=""><dc:format>image/svg+xml</dc:format><dc:type
         rdf:resource="http://purl.org/dc/dcmitype/StillImage" /><dc:title></dc:title></cc:Work></rdf:RDF></metadata><defs
   id="defs15"><rect
     id="rect846"
     height="144.70454"
     width="376.19363"
     y="18.599188"
     x="181.3681" /></defs><sodipodi:namedview
   lock-margins="false"
   width="500mm"
   units="px"
   inkscape:current-layer="Layer_1"
   inkscape:window-maximized="1"
   inkscape:window-y="40"
   inkscape:window-x="0"
   inkscape:cy="120.28613"
   inkscape:cx="171.94091"
   inkscape:zoom="1.4142136"
   fit-margin-bottom="0"
   fit-margin-right="50"
   fit-margin-left="50"
   fit-margin-top="0"
   showgrid="false"
   id="namedview13"
   inkscape:window-height="1003"
   inkscape:window-width="1920"
   inkscape:pageshadow="2"
   inkscape:pageopacity="0"
   guidetolerance="10"
   gridtolerance="10"
   objecttolerance="10"
   borderopacity="1"
   bordercolor="#666666"
   pagecolor="#ffffff" />
<style
   id="style2"
   type="text/css">
	.st0{fill:none;}
</style>

<path
   id="path842"
   d="m 77.918179,159.60676 c -18.785566,-5.04584 -34.250896,-9.26958 -34.367406,-9.38609 -0.18885,-0.18885 -18.33052,-67.053326 -18.54692,-68.358076 -0.0842,-0.50755 0.99738,-1.61045 25.07854,-25.57348 13.841577,-13.77369 25.298927,-25.06459 25.460767,-25.09091 0.27726,-0.0451 68.60617,18.19528 68.76863,18.35774 0.0418,0.0418 4.22891,15.54862 9.30467,34.4596 l 9.22867,34.383576 -25.21358,25.2118 c -13.86744,13.86649 -25.291,25.20242 -25.38567,25.19095 -0.0947,-0.0115 -15.54214,-4.14926 -34.327701,-9.19511 z m 0.22505,-28.45075 c 2.42418,-8.82085 17.90774,-66.750736 17.85524,-66.803246 -0.0579,-0.0579 -62.702166,16.57767 -66.670106,17.70471 -0.50064,0.1422 -0.91025,0.31762 -0.91025,0.38983 0,0.22133 49.138916,49.270196 49.361676,49.271226 0.11472,5.2e-4 0.27826,-0.2526 0.36344,-0.56252 z"
   style="fill:#dd30af;stroke:#dd30af;stroke-width:0;stroke-linejoin:round;stroke-opacity:0.0196078" /><text
   transform="translate(-9.70038,26.267994)"
   style="font-style:normal;font-variant:normal;font-weight:500;font-stretch:normal;font-size:85.3333px;line-height:1.25;font-family:'Roboto Mono';-inkscape-font-specification:'Roboto Mono Medium';white-space:pre;shape-inside:url(#rect846);fill:#dd30af;fill-opacity:1;stroke:none;"
   id="text844"
   xml:space="preserve"><tspan
     x="181.36719"
     y="97.06533"><tspan
       style="font-style:normal;font-variant:normal;font-weight:500;font-stretch:normal;font-size:85.3333px;font-family:'Roboto Mono';-inkscape-font-specification:'Roboto Mono Medium';fill:#dd30af;fill-opacity:1">GraphQL</tspan></tspan></text></svg>
