<?xml version="1.0" encoding="UTF-8" standalone="no"?>
<svg
   xmlns:dc="http://purl.org/dc/elements/1.1/"
   xmlns:cc="http://creativecommons.org/ns#"
   xmlns:rdf="http://www.w3.org/1999/02/22-rdf-syntax-ns#"
   xmlns:svg="http://www.w3.org/2000/svg"
   xmlns="http://www.w3.org/2000/svg"
   xmlns:sodipodi="http://sodipodi.sourceforge.net/DTD/sodipodi-0.dtd"
   xmlns:inkscape="http://www.inkscape.org/namespaces/inkscape"
   version="1.1"
   id="Layer_1"
   x="0px"
   y="0px"
   viewBox="0 0 550 200"
   xml:space="preserve"
   sodipodi:docname="logo.svg"
   width="550"
   height="200"
   inkscape:version="1.0 (4035a4fb49, 2020-05-01)"><metadata
   id="metadata17"><rdf:RDF><cc:Work
       rdf:about=""><dc:format>image/svg+xml</dc:format><dc:type
         rdf:resource="http://purl.org/dc/dcmitype/StillImage" /><dc:title></dc:title></cc:Work></rdf:RDF></metadata><defs
   id="defs15"><rect
     x="181.3681"
     y="18.599188"
     width="376.19363"
     height="144.70454"
     id="rect846" /><rect
     id="rect1663"
     height="144.70454"
     width="376.19363"
     y="18.599188"
     x="181.3681" /></defs><sodipodi:namedview
   inkscape:document-rotation="0"
   pagecolor="#ffffff"
   bordercolor="#666666"
   borderopacity="1"
   objecttolerance="10"
   gridtolerance="10"
   guidetolerance="10"
   inkscape:pageopacity="0"
   inkscape:pageshadow="2"
   inkscape:window-width="1920"
   inkscape:window-height="1003"
   id="namedview13"
   showgrid="false"
   fit-margin-top="0"
   fit-margin-left="50"
   fit-margin-right="50"
   fit-margin-bottom="0"
   inkscape:zoom="1.4142136"
   inkscape:cx="171.94091"
   inkscape:cy="120.28613"
   inkscape:window-x="0"
   inkscape:window-y="40"
   inkscape:window-maximized="1"
   inkscape:current-layer="g1661"
   units="px"
   width="500mm"
   lock-margins="false" />
<style
   type="text/css"
   id="style2">
	.st0{fill:none;}
</style>

<g
   style="display:none"
   inkscape:label="Font"
   id="layer1"
   inkscape:groupmode="layer"><text
     xml:space="preserve"
     id="text844"
     style="font-style:normal;font-variant:normal;font-weight:500;font-stretch:normal;font-size:85.3333px;line-height:1.25;font-family:'Roboto Mono';-inkscape-font-specification:'Roboto Mono Medium';white-space:pre;shape-inside:url(#rect846);fill:#dd30af;fill-opacity:1;stroke:none;"
     transform="translate(-9.70038,26.267994)"><tspan
       x="181.36719"
       y="97.06533"><tspan
         style="font-style:normal;font-variant:normal;font-weight:500;font-stretch:normal;font-size:85.3333px;font-family:'Roboto Mono';-inkscape-font-specification:'Roboto Mono Medium';fill:#dd30af;fill-opacity:1">GraphQL</tspan></tspan></text></g><g
   inkscape:groupmode="layer"
   id="g1661"
   inkscape:label="Font rendered"
   style="display:inline"><g
     style="font-style:normal;font-variant:normal;font-weight:500;font-stretch:normal;font-size:85.3333px;line-height:1.25;font-family:'Roboto Mono';-inkscape-font-specification:'Roboto Mono Medium';white-space:pre;shape-inside:url(#rect1663);fill:#dd30af;fill-opacity:1;stroke:none"
     id="text1659"
     transform="translate(-9.70038,26.267994)"
     aria-label="GraphQL"><path
       id="path1665"
       style="font-style:normal;font-variant:normal;font-weight:500;font-stretch:normal;font-size:85.3333px;font-family:'Roboto Mono';-inkscape-font-specification:'Roboto Mono Medium';fill:#dd30af;fill-opacity:1"
       d="m 228.24217,89.607 -0.0833,-23.208324 h -20.83332 v 7.791664 h 11 l -0.0417,12.124995 q -0.66667,0.874999 -1.79167,1.541666 -1.125,0.624999 -2.45833,1.041666 -1.375,0.416666 -2.875,0.625 -1.5,0.166666 -2.95833,0.166666 -2.45833,-0.04167 -4.41667,-0.833333 -1.91666,-0.791666 -3.37499,-2.249999 -1.16667,-1.124999 -2.04167,-2.583332 -0.83333,-1.458333 -1.45833,-3.124999 -0.79167,-2.208332 -1.20834,-4.791665 -0.37499,-2.583332 -0.37499,-5.458331 v -7.83333 q 0,-2.458332 0.29166,-4.791664 0.29167,-2.333333 0.91667,-4.374998 0.70833,-2.333333 1.79166,-4.208332 1.125,-1.916666 2.625,-3.208332 1.29167,-1.125 2.91667,-1.749999 1.625,-0.666667 3.54166,-0.666667 2.625,0 4.54167,0.75 1.95833,0.75 3.29166,2.166666 1.25,1.333333 2,3.291665 0.75,1.916666 1.125,4.291665 h 9.83333 q -0.41667,-4.333332 -1.95833,-7.791664 -1.54167,-3.499998 -4.20833,-5.95833 -2.625,-2.416666 -6.33333,-3.708332 -3.70834,-1.291666 -8.5,-1.291666 -3.54167,0 -6.58333,0.999999 -3,1 -5.5,2.833332 -2.29166,1.75 -4.08333,4.124999 -1.79167,2.374999 -3.08333,5.249998 -1.33333,3.041665 -2.04167,6.624997 -0.66666,3.583332 -0.70833,7.499997 v 7.749996 q 0.0417,4.041665 0.79167,7.708331 0.75,3.666665 2.20833,6.70833 1.29166,2.916666 3.20833,5.291665 1.95833,2.374999 4.41666,4.041665 2.45834,1.666665 5.5,2.583332 3.04167,0.916666 6.54167,0.916666 3.79166,0 7.12499,-0.791666 3.33334,-0.75 6.16667,-2.124999 2.25,-1.083333 4.04166,-2.458333 1.79167,-1.416666 3.04167,-2.916665 z" /><path
       id="path1667"
       style="font-style:normal;font-variant:normal;font-weight:500;font-stretch:normal;font-size:85.3333px;font-family:'Roboto Mono';-inkscape-font-specification:'Roboto Mono Medium';fill:#dd30af;fill-opacity:1"
       d="m 270.20048,51.148683 q -4.66666,0 -8.54166,2.166665 -3.83333,2.166666 -6.58333,5.958331 l -0.0417,-1.041666 -0.41666,-6.249997 H 245.2838 V 97.06533 h 9.95833 V 69.232008 q 0.79166,-1.999999 1.95833,-3.541665 1.16667,-1.541666 2.83333,-2.541665 1.54167,-1.041667 3.54167,-1.541666 2,-0.5 4.5,-0.5 2.20833,0 4.41666,0.25 2.25,0.25 4.54167,0.749999 l 1.41666,-9.833329 q -1.29166,-0.458333 -3.58333,-0.791666 -2.25,-0.333333 -4.66667,-0.333333 z" /><path
       id="path1669"
       style="font-style:normal;font-variant:normal;font-weight:500;font-stretch:normal;font-size:85.3333px;font-family:'Roboto Mono';-inkscape-font-specification:'Roboto Mono Medium';fill:#dd30af;fill-opacity:1"
       d="m 319.0338,97.06533 h 10.16666 V 96.356997 Q 328.36713,94.606998 327.9088,92.190332 327.49213,89.732 327.49213,86.690334 V 66.648676 q 0,-3.833332 -1.41667,-6.749997 -1.41666,-2.958332 -3.91666,-4.874998 -2.5,-1.916666 -5.95833,-2.874999 -3.41667,-0.999999 -7.375,-0.999999 -4.41667,0 -7.875,1.166666 -3.41666,1.124999 -5.74999,3.083332 -2.41667,1.916666 -3.66667,4.416665 -1.25,2.499999 -1.29167,5.208331 h 10 q 0,-1.291666 0.45833,-2.416666 0.5,-1.166666 1.5,-1.958332 1,-0.875 2.5,-1.375 1.54167,-0.5 3.58333,-0.5 2.25,0 3.95833,0.583333 1.75,0.541667 2.95834,1.583333 1.125,1.041666 1.70833,2.458332 0.625,1.416667 0.625,3.166666 v 3.041665 h -7.25 q -4.875,0 -8.74999,0.916666 -3.83334,0.916667 -6.45833,2.666666 -2.83334,1.874999 -4.33334,4.749998 -1.45833,2.833332 -1.45833,6.541664 0,2.874999 1.125,5.374998 1.16667,2.458332 3.25,4.208331 2.04167,1.791666 4.91666,2.833332 2.91667,1 6.41667,1 2.16666,0 4.04166,-0.416666 1.875,-0.416667 3.5,-1.166667 1.625,-0.708333 2.91667,-1.666666 1.33333,-0.999999 2.375,-2.083332 0.20833,1.291666 0.45833,2.499999 0.29167,1.166666 0.75,1.999999 z m -12.125,-7.166664 q -1.91666,0 -3.33333,-0.458333 -1.41666,-0.5 -2.375,-1.333333 -0.95833,-0.833333 -1.45833,-1.999999 -0.5,-1.208333 -0.5,-2.583332 0,-1.666666 0.58333,-2.999999 0.625,-1.333332 1.875,-2.291665 1.41667,-1.125 3.79167,-1.708333 2.375,-0.625 5.625,-0.625 h 6.41666 v 8.33333 q -0.54167,1.083333 -1.54167,2.083333 -1,0.999999 -2.375,1.791665 -1.375,0.791667 -3.08333,1.291667 -1.66666,0.499999 -3.625,0.499999 z" /><path
       id="path1671"
       style="font-style:normal;font-variant:normal;font-weight:500;font-stretch:normal;font-size:85.3333px;font-family:'Roboto Mono';-inkscape-font-specification:'Roboto Mono Medium';fill:#dd30af;fill-opacity:1"
       d="m 341.53379,114.39866 h 9.95833 V 92.981998 q 0.79167,0.875 1.70833,1.625 0.91667,0.749999 1.91667,1.333333 1.70833,0.958332 3.70833,1.458332 2.04167,0.5 4.45833,0.5 4.25,0 7.54166,-1.749999 3.29167,-1.749999 5.54167,-4.833332 2.25,-3.041665 3.375,-7.249997 1.16666,-4.208331 1.16666,-9.083329 v -0.875 q 0,-5.083331 -1.16666,-9.291662 -1.16667,-4.249999 -3.375,-7.291664 -2.25,-3.041666 -5.58333,-4.708331 -3.29167,-1.666666 -7.625,-1.666666 -2.20833,0 -4.16666,0.499999 -1.95834,0.458333 -3.58334,1.333333 -1.24999,0.666667 -2.33333,1.583333 -1.08333,0.916666 -2,2.041666 l -0.375,-4.624998 h -9.16666 z m 29.41665,-40.291654 v 0.875 q 0,2.999999 -0.58333,5.708331 -0.58333,2.666665 -1.875,4.749998 -1.25,2.041666 -3.25,3.249999 -1.95833,1.166666 -4.74999,1.166666 -1.70834,0 -3.125,-0.375 -1.41667,-0.416667 -2.54167,-1.083333 -1.08333,-0.708333 -1.91666,-1.666666 -0.83334,-0.958333 -1.41667,-2.124999 V 64.565344 q 0.66667,-1.25 1.54167,-2.249999 0.91666,-1 2.12499,-1.666666 1.04167,-0.625 2.375,-0.958333 1.33334,-0.333334 2.875,-0.333334 2.79167,0 4.79167,1.166667 2,1.166666 3.29166,3.166665 1.25,1.999999 1.83334,4.708331 0.62499,2.666666 0.62499,5.708331 z" /><path
       id="path1673"
       style="font-style:normal;font-variant:normal;font-weight:500;font-stretch:normal;font-size:85.3333px;font-family:'Roboto Mono';-inkscape-font-specification:'Roboto Mono Medium';fill:#dd30af;fill-opacity:1"
       d="M 402.6171,58.39868 V 33.065357 h -9.95833 V 97.06533 h 9.95833 V 64.440344 q 0.70833,-1.083333 1.625,-1.958333 0.95833,-0.874999 2.04166,-1.499999 1.29167,-0.791667 2.83334,-1.208333 1.58333,-0.416667 3.33333,-0.416667 2.25,0 3.95833,0.625 1.75,0.583333 2.95833,1.833333 1.16667,1.166666 1.75,3.041665 0.625,1.874999 0.625,4.374998 V 97.06533 h 9.95833 V 69.315342 q 0,-4.791665 -1.16667,-8.20833 -1.125,-3.458332 -3.20833,-5.666665 -2.08333,-2.208332 -5.04166,-3.249998 -2.91667,-1.041666 -6.45833,-1.041666 -2.54167,0 -4.83333,0.749999 -2.25,0.708333 -4.125,2.083333 -1.20834,0.833333 -2.29167,1.958332 -1.08333,1.125 -1.95833,2.458333 z" /><path
       id="path1675"
       style="font-style:normal;font-variant:normal;font-weight:500;font-stretch:normal;font-size:85.3333px;font-family:'Roboto Mono';-inkscape-font-specification:'Roboto Mono Medium';fill:#dd30af;fill-opacity:1"
       d="m 485.2004,71.523674 v -8.33333 q -0.0417,-3.249998 -0.54167,-6.374997 -0.45833,-3.166665 -1.45833,-5.999998 -1.20833,-3.458332 -3.20833,-6.33333 -1.95833,-2.874999 -4.625,-4.916665 -2.5,-1.874999 -5.625,-2.916665 -3.08333,-1.083333 -6.79166,-1.083333 -3.70833,0 -6.79167,1.083333 -3.04166,1.041666 -5.49999,2.916665 -2.58334,1.958333 -4.45833,4.708331 -1.83334,2.749999 -2.95834,6.041665 -1.04166,2.916665 -1.58333,6.20833 -0.54167,3.249999 -0.54167,6.666664 v 8.33333 q 0,3.124999 0.54167,6.208331 0.54167,3.083332 1.625,5.874997 1.16667,3.041666 3,5.708331 1.83333,2.624999 4.29166,4.541665 2.45834,1.874999 5.54167,2.958332 3.08333,1.083333 6.83333,1.083333 1.58333,0 3.04166,-0.208333 1.45834,-0.208333 2.875,-0.583333 l 11.70833,10.458333 6.625,-6 -10.20833,-8.916665 q 1.95833,-1.749999 3.41666,-3.999998 1.45834,-2.249999 2.45834,-4.749998 1.125,-2.833332 1.70833,-5.999998 0.58333,-3.166665 0.625,-6.374997 z m -10.125,-8.416663 v 8.416663 q 0,1.916666 -0.25,3.916665 -0.20833,1.999999 -0.66666,3.916665 -0.625,2.208333 -1.625,4.166665 -1,1.916666 -2.5,3.291665 -1.33333,1.208333 -3.08333,1.958333 -1.75,0.708333 -4,0.708333 -2.20833,0 -3.91667,-0.708333 -1.70833,-0.708333 -2.95833,-1.958333 -1.5,-1.374999 -2.5,-3.333332 -0.95833,-1.999999 -1.5,-4.333331 -0.45833,-1.833333 -0.66666,-3.791665 -0.20834,-1.958333 -0.20834,-3.833332 v -8.416663 q 0,-2.041666 0.16667,-4.083332 0.20833,-2.041666 0.625,-3.958331 0.5,-2.541666 1.45833,-4.666665 1,-2.166666 2.54167,-3.666665 1.29166,-1.25 3,-1.958333 1.70833,-0.708333 3.95833,-0.708333 2.29166,0 4.08333,0.75 1.79167,0.708333 3.08333,1.958332 1.375,1.333333 2.33333,3.166666 1,1.833332 1.54167,3.999998 0.58333,2.083333 0.83333,4.458332 0.25,2.333332 0.25,4.708331 z" /><path
       id="path1677"
       style="font-style:normal;font-variant:normal;font-weight:500;font-stretch:normal;font-size:85.3333px;font-family:'Roboto Mono';-inkscape-font-specification:'Roboto Mono Medium';fill:#dd30af;fill-opacity:1"
       d="M 505.74206,88.815334 V 36.398689 H 495.7004 V 97.06533 h 38.99998 v -8.249996 z" /></g></g><g
   inkscape:label="Icon"
   id="layer2"
   inkscape:groupmode="layer"><path
     style="fill:#dd30af;stroke:#dd30af;stroke-width:0;stroke-linejoin:round;stroke-opacity:0.0196078"
     d="m 77.918179,159.60676 c -18.785566,-5.04584 -34.250896,-9.26958 -34.367406,-9.38609 -0.18885,-0.18885 -18.33052,-67.053326 -18.54692,-68.358076 -0.0842,-0.50755 0.99738,-1.61045 25.07854,-25.57348 13.841577,-13.77369 25.298927,-25.06459 25.460767,-25.09091 0.27726,-0.0451 68.60617,18.19528 68.76863,18.35774 0.0418,0.0418 4.22891,15.54862 9.30467,34.4596 l 9.22867,34.383576 -25.21358,25.2118 c -13.86744,13.86649 -25.291,25.20242 -25.38567,25.19095 -0.0947,-0.0115 -15.54214,-4.14926 -34.327701,-9.19511 z m 0.22505,-28.45075 c 2.42418,-8.82085 17.90774,-66.750736 17.85524,-66.803246 -0.0579,-0.0579 -62.702166,16.57767 -66.670106,17.70471 -0.50064,0.1422 -0.91025,0.31762 -0.91025,0.38983 0,0.22133 49.138916,49.270196 49.361676,49.271226 0.11472,5.2e-4 0.27826,-0.2526 0.36344,-0.56252 z"
     id="path842" /></g></svg>
